<?xml version="1.0" encoding="utf-8" ?>
<svg xmlns="http://www.w3.org/2000/svg" xmlns:xlink="http://www.w3.org/1999/xlink" width="12" height="14">
	<defs>
		<clipPath id="clip_0">
			<rect x="-1177" y="-309" width="1440" height="1024" clip-rule="evenodd"/>
		</clipPath>
	</defs>
	<g clip-path="url(#clip_0)">
		<path fill="rgb(71,83,100)" stroke="none" d="M9 1L11 1C12 1 12 2.04858 12 2.04858L12 3L0 3L0 2.04858C0 2.04858 0 1 1 1L3 1C3 1 3 0 4 0L8 0C9 0 9 1 9 1ZM2 14C1 14 1 13 1 13L1 4L11 4L11 13C11 13 11 14 10 14L2 14ZM4 6L5 6L5 12L4 12L4 6ZM8 6L7 6L7 12L8 12L8 6Z" fill-rule="evenodd"/>
	</g>

</svg>