<?xml version="1.0" encoding="utf-8" ?>
<svg xmlns="http://www.w3.org/2000/svg" xmlns:xlink="http://www.w3.org/1999/xlink" width="14" height="14">
	<defs>
		<clipPath id="clip_0">
			<rect x="-1022" y="-233" width="1440" height="1024" clip-rule="evenodd"/>
		</clipPath>
	</defs>
	<g clip-path="url(#clip_0)">
		<path fill="#475364" stroke="none" d="M5.0035 4.25798C4.63628 4.02461 4.51941 3.5235 4.74222 3.13886L6.33384 0.392065C6.47481 0.148722 6.72658 0.000212143 6.9982 0C7.27022 0 7.52178 0.148085 7.66296 0.390792L9.77918 4.02991L9.87741 3.64634C9.98861 3.21184 10.415 2.95364 10.83 3.07033C11.2448 3.1868 11.4911 3.63339 11.3799 4.0681L10.8106 6.29384C10.7174 6.6579 10.403 6.89785 10.0597 6.89785C9.99307 6.89785 9.92542 6.88894 9.85797 6.86984L7.73304 6.27347C7.31802 6.157 7.07192 5.71041 7.18292 5.2757C7.29412 4.8412 7.72068 4.58322 8.1355 4.69969L8.38848 4.77076L6.99982 2.38294L6.07194 3.9843C5.84914 4.36894 5.37093 4.49135 5.0035 4.25798ZM4.37135 9.35886C4.02783 9.35886 3.71368 9.11891 3.62051 8.75485L3.52349 8.37573L2.1569 10.7432L3.83581 10.7432C4.26522 10.7432 4.6136 11.1081 4.6136 11.5579C4.6136 12.0078 4.26522 12.4496 3.83581 12.4496L0.781281 12.4496C0.500549 12.4496 0.238159 12.2143 0.100224 11.9582C-0.0375088 11.7021 -0.0330527 11.3879 0.112174 11.1365L2.13664 7.62936L1.8788 7.70171C1.46378 7.81818 1.03741 7.5602 0.926214 7.12549C0.815015 6.69099 1.06131 6.24419 1.47613 6.12772L3.60106 5.53156C4.01628 5.41487 4.44265 5.67285 4.55364 6.10756L5.12301 8.3333C5.23421 8.76779 4.98811 9.2146 4.57309 9.33107C4.50564 9.34995 4.43799 9.35886 4.37135 9.35886ZM8.82173 12.4496L13.2278 12.4496C13.5087 12.4496 13.7623 12.2141 13.9 11.9576C14.0377 11.7011 14.0329 11.3869 13.8873 11.1353L12.2849 8.36915C12.0621 7.98451 11.5837 7.8621 11.2165 8.09547C10.8492 8.32884 10.7322 8.82974 10.955 9.21438L11.8405 10.7432L8.82173 10.7432L9.05142 10.5026C9.35525 10.1846 9.35525 9.66861 9.05142 9.35059C8.7478 9.03235 8.25521 9.03235 7.95159 9.35059L6.39602 10.98C6.0922 11.298 6.0922 11.8139 6.39602 12.132L7.95159 13.7613C8.1033 13.9204 8.3024 14 8.50151 14C8.70061 14 8.89972 13.9204 9.05142 13.7613C9.35525 13.4433 9.35525 12.9273 9.05142 12.6093L8.82173 12.4496Z" fill-rule="evenodd"/>
	</g>

</svg>