<?xml version="1.0" encoding="utf-8" ?>
<svg xmlns="http://www.w3.org/2000/svg" xmlns:xlink="http://www.w3.org/1999/xlink" width="14" height="18">
	<defs>
		<clipPath id="clip_0">
			<rect x="-507" y="-450" width="1440" height="1024" clip-rule="evenodd"/>
		</clipPath>
	</defs>
	<g clip-path="url(#clip_0)">
		<path fill="rgb(255,255,255)" stroke="none" d="M13 18C14 18 14 17 14 17L14 1C14 1 14 0 13 0L5 0L5 5L0 5L0 17C0 17 0 18 1 18L13 18ZM0 4L4 0L4 4L0 4ZM11 7L11 8L3 8L3 7L11 7ZM3 10L3 11L11 11L11 10L3 10ZM3 14L3 13L7 13L7 14L3 14Z" fill-rule="evenodd"/>
	</g>

</svg>