<?xml version="1.0" encoding="utf-8" ?>
<svg xmlns="http://www.w3.org/2000/svg" xmlns:xlink="http://www.w3.org/1999/xlink" width="12" height="14">
	<defs>
		<clipPath id="clip_0">
			<rect x="-887" y="-224" width="1440" height="1024" clip-rule="evenodd"/>
		</clipPath>
	</defs>
	<g clip-path="url(#clip_0)">
		<path fill="#475364" stroke="none" d="M10 0L2 0L2 1L0 1L0 14L5 14L5 12L7 12L7 14L12 14L12 1L10 1L10 0ZM2 4L2 6L4 6L4 4L2 4ZM5 4L5 6L7 6L7 4L5 4ZM8 4L8 6L10 6L10 4L8 4ZM2 9L2 7L4 7L4 9L2 9ZM5 9L5 7L7 7L7 9L5 9ZM8 9L8 7L10 7L10 9L8 9Z" fill-rule="evenodd"/>
	</g>

</svg>