<?xml version="1.0" encoding="utf-8" ?>
<svg xmlns="http://www.w3.org/2000/svg" xmlns:xlink="http://www.w3.org/1999/xlink" width="18" height="18">
	<defs>
		<clipPath id="clip_0">
			<rect x="-139" y="-222" width="1440" height="1024" clip-rule="evenodd"/>
		</clipPath>
	</defs>
	<g clip-path="url(#clip_0)">
		<path fill="rgb(255,255,255)" stroke="none" d="M5 4L5 0L13 0L13 4L18 4L18 10L12 10L12 8L6 8L6 10L0 10L0 4L5 4ZM7 4L7 2L11 2L11 4L7 4ZM11 9L7 9L7 11L11 11L11 9ZM12 12L12 11L17 11L17 18L1 18L1 11L6 11L6 12L12 12Z" fill-rule="evenodd"/>
	</g>

</svg>