<?xml version="1.0" encoding="utf-8" ?>
<svg xmlns="http://www.w3.org/2000/svg" xmlns:xlink="http://www.w3.org/1999/xlink" width="14" height="18">
	<defs>
		<clipPath id="clip_0">
			<rect x="-507" y="-526" width="1440" height="1024" clip-rule="evenodd"/>
		</clipPath>
	</defs>
	<g clip-path="url(#clip_0)">
		<path fill="rgb(255,255,255)" stroke="none" d="M14 10L14 1C14 1 14 0 13 0L5 0L5 5L0 5L0 10L1 10L2.5 8L4 10L5.5 8L7 10L8.5 8L10 10L11.5 8L13.0148 10L14 10ZM4 0L0 4L4 4L4 0ZM14 17C14 17 14 18 13 18L1 18C0 18 0 17 0 17L0 12L1 12L2.5 10L4 12L5.5 10L7 12L8.5 10L10 12L11.5 10L13.0166 12L14 12L14 17Z" fill-rule="evenodd"/>
	</g>

</svg>