<?xml version="1.0" encoding="utf-8" ?>
<svg xmlns="http://www.w3.org/2000/svg" xmlns:xlink="http://www.w3.org/1999/xlink" width="18" height="18">
	<defs>
		<clipPath id="clip_0">
			<rect x="-139" y="-374" width="1440" height="1024" clip-rule="evenodd"/>
		</clipPath>
	</defs>
	<g clip-path="url(#clip_0)">
		<path fill="rgb(142,164,181)" stroke="none" d="M5 0L5 4L0 4L0 10L1 10L1 18L17 18L17 10L18 10L18 4L13 4L13 0L5 0ZM7 4L7 2L11 2L11 4L7 4ZM6 15L5 15L5 7L6 7L12 13.65L12 7L13 7L13 15L12 15L6 8.35L6 15Z" fill-rule="evenodd"/>
	</g>

</svg>