<?xml version="1.0" encoding="utf-8" ?>
<svg xmlns="http://www.w3.org/2000/svg" xmlns:xlink="http://www.w3.org/1999/xlink" width="12" height="14">
	<defs>
		<clipPath id="clip_0">
			<rect x="-1023" y="-215" width="1440" height="1024" clip-rule="evenodd"/>
		</clipPath>
	</defs>
	<g clip-path="url(#clip_0)">
		<path fill="#475364" stroke="none" d="M2 12L0 12L0 10L2 10L2 8L0 8L0 5.9967L2 5.9967C2 5.9967 1.91241 0 2 0L8 0C8 0 12 0.55542 12 3.99835C12 7.44128 8 8 8 8L4 8L4 10L9 10L9 12L4 12L4 14L2 14L2 12ZM7.5 2L4 2L4 5.9967L7.5 5.9967C7.5 5.9967 10 5.77051 10 3.99835C10 2.2262 7.5 2 7.5 2Z" fill-rule="evenodd"/>
	</g>

</svg>