<?xml version="1.0" encoding="utf-8" ?>
<svg xmlns="http://www.w3.org/2000/svg" xmlns:xlink="http://www.w3.org/1999/xlink" width="14" height="18">
	<defs>
		<clipPath id="clip_0">
			<rect x="-141" y="-450" width="1440" height="1024" clip-rule="evenodd"/>
		</clipPath>
	</defs>
	<g clip-path="url(#clip_0)">
		<path fill="rgb(255,255,255)" stroke="none" d="M11 4C11 6.20914 9.20914 8 7 8C4.79086 8 3 6.20914 3 4C3 1.79086 4.79086 0 7 0C9.20914 0 11 1.79086 11 4ZM7 10C5.98999 10 4 9 4 9C1 9 0 13 0 13L0 16C0 16 0 18 2 18L12 18C14 18 14 16 14 16L14 13C14 13 13 9 10 9C10 9 7.98999 10 7 10Z" fill-rule="evenodd"/>
	</g>

</svg>