<?xml version="1.0" encoding="utf-8" ?>
<svg xmlns="http://www.w3.org/2000/svg" xmlns:xlink="http://www.w3.org/1999/xlink" width="18" height="18">
	<defs>
		<clipPath id="clip_0">
			<rect x="-139" y="-298" width="1440" height="1024" clip-rule="evenodd"/>
		</clipPath>
	</defs>
	<g clip-path="url(#clip_0)">
		<path fill="rgb(255,255,255)" stroke="none" d="M5 0L5 4L0 4L0 10L1 10L1 18L17 18L17 10L18 10L18 4L13 4L13 0L5 0ZM7 4L7 2L11 2L11 4L7 4ZM13 7.72841L12.2685 7L8.9976 10.272L5.71449 7L5 7.72841L8.26404 10.9985L5 14.2693L5.71449 14.9969L8.9976 11.7242L12.2685 14.9969L13 14.2693L9.72044 10.9977L13 7.72841Z" fill-rule="evenodd"/>
	</g>

</svg>